<?xml version="1.0" standalone="no"?>
<!DOCTYPE svg PUBLIC "-//W3C//DTD SVG 20010904//EN"
 "http://www.w3.org/TR/2001/REC-SVG-20010904/DTD/svg10.dtd">
<svg version="1.0" xmlns="http://www.w3.org/2000/svg"
 width="1200.000000pt" height="1200.000000pt" viewBox="0 0 1200.000000 1200.000000"
 preserveAspectRatio="xMidYMid meet">
<metadata>
Created by potrace 1.11, written by Peter Selinger 2001-2013
</metadata>
<g transform="translate(0.000000,1200.000000) scale(0.100000,-0.100000)"
fill="#000000" stroke="none">
<path d="M5555 11989 c-1164 -94 -2230 -492 -3150 -1176 -433 -322 -896 -785
-1218 -1218 -592 -796 -980 -1729 -1126 -2705 -48 -326 -56 -445 -56 -885 0
-440 8 -559 56 -885 130 -867 448 -1695 934 -2430 227 -344 452 -618 760 -925
473 -474 966 -830 1555 -1124 667 -332 1326 -523 2100 -608 238 -26 932 -26
1170 0 1254 137 2333 593 3290 1390 186 156 551 521 707 707 729 875 1187
1888 1352 2990 48 326 56 445 56 885 0 440 -8 559 -56 885 -130 867 -448 1695
-934 2430 -227 344 -452 618 -760 925 -473 474 -966 830 -1555 1124 -664 331
-1317 521 -2090 607 -170 19 -858 28 -1035 13z m3671 -1518 c-5 -8 47 -25 70
-22 6 1 29 -6 50 -16 21 -9 43 -17 47 -17 4 -1 11 -5 15 -11 4 -5 13 -11 21
-13 8 -2 27 -12 42 -23 15 -10 31 -19 36 -19 5 0 18 -8 29 -18 10 -10 24 -20
29 -21 27 -9 153 -96 255 -178 347 -275 694 -653 971 -1058 507 -739 825
-1608 926 -2525 14 -130 18 -245 18 -545 0 -407 -9 -532 -61 -875 -187 -1226
-765 -2352 -1655 -3225 -788 -774 -1764 -1297 -2844 -1524 -173 -37 -418 -74
-635 -98 -232 -25 -865 -25 -1090 0 -1030 115 -1974 492 -2772 1107 -283 218
-582 506 -765 736 -103 129 -193 250 -193 258 0 4 -23 42 -50 87 -28 44 -48
84 -45 89 3 5 -2 13 -10 17 -8 5 -17 19 -20 31 -2 12 -13 36 -25 52 -12 16
-16 31 -11 35 6 3 2 19 -10 39 -18 30 -18 34 -3 32 9 0 18 7 19 17 2 10 -1 14
-8 10 -6 -4 -8 0 -5 9 4 8 2 21 -2 28 -12 19 8 53 26 46 13 -5 19 6 15 27 -1
5 3 5 9 2 14 -8 41 26 32 40 -3 5 1 4 10 -3 13 -11 16 -10 14 5 0 11 5 17 16
17 10 -1 16 2 13 6 -3 4 7 15 21 25 14 9 30 30 36 46 5 16 13 27 16 25 15 -9
54 15 48 29 -3 8 -1 15 5 15 6 0 7 5 4 10 -4 6 -3 10 2 9 4 -1 15 -1 23 0 13
1 13 2 0 11 -13 9 -13 10 0 10 8 0 21 9 28 20 7 11 19 20 27 20 9 0 12 6 9 15
-4 10 0 15 15 15 15 0 21 6 21 21 0 13 5 19 13 16 8 -3 18 7 26 24 7 16 16 27
20 24 5 -2 13 7 19 20 7 15 20 25 32 25 12 0 18 4 15 10 -3 5 -1 10 5 10 6 0
9 4 6 9 -3 5 4 11 15 14 12 3 18 10 15 15 -3 5 6 14 19 20 14 7 25 17 25 24 0
10 3 9 9 -1 7 -11 10 -9 15 7 4 11 18 27 31 36 14 9 25 23 25 32 0 9 5 12 12
8 8 -5 9 -2 4 12 -4 10 -4 16 -1 12 8 -8 43 24 38 35 -2 4 1 7 7 7 15 0 80 61
80 75 0 7 7 18 15 25 10 9 15 9 15 1 0 -6 5 -11 11 -11 5 0 8 4 5 8 -9 14 32
70 49 69 10 -1 22 7 29 18 19 33 40 61 51 66 6 2 9 8 7 12 -1 5 8 6 20 2 13
-4 18 -3 11 2 -15 10 -1 29 49 67 21 16 35 32 32 37 -3 5 1 9 8 9 8 0 29 17
48 37 19 20 29 33 21 28 -9 -5 -12 -4 -7 3 4 6 13 9 20 6 8 -3 16 4 19 16 4
14 10 19 18 14 7 -4 10 -3 5 4 -7 12 31 52 51 52 7 0 13 7 13 16 0 10 6 14 15
10 8 -3 14 -2 14 2 -4 24 3 42 17 42 8 0 12 5 9 10 -3 6 3 10 14 10 12 0 22 5
22 10 1 6 2 14 3 20 2 16 83 86 95 82 6 -2 11 0 10 5 -4 21 3 31 23 36 12 4
19 9 16 12 -8 9 23 45 39 45 7 0 19 12 27 28 9 15 15 20 16 12 0 -13 2 -13 9
0 6 8 7 18 5 22 -3 4 2 5 10 2 12 -5 16 1 16 22 0 23 2 26 10 14 8 -13 10 -12
10 3 0 9 5 17 12 17 20 0 47 31 41 48 -4 10 -2 13 5 8 15 -9 107 78 98 93 -4
6 -1 9 7 5 8 -3 20 3 28 13 13 17 13 17 -6 3 -15 -10 -14 -7 4 13 18 20 27 24
33 15 6 -10 8 -9 8 2 0 8 9 21 21 28 12 8 18 19 15 28 -3 8 -1 14 4 14 13 0
56 43 52 53 -1 4 6 7 15 5 13 -2 17 2 15 17 -2 11 -1 17 3 13 4 -4 17 4 28 18
10 14 26 23 33 20 9 -3 14 2 14 15 0 11 7 22 15 25 8 4 12 10 9 15 -3 5 -2 9
3 8 27 -5 44 3 41 18 -2 10 3 18 11 18 8 0 17 9 22 20 4 11 8 -222 8 -517 1
-394 4 -544 13 -563 25 -56 16 -55 667 -55 444 0 607 3 626 12 58 26 55 -38
55 1283 0 1178 1 1215 19 1231 59 51 71 65 65 76 -5 8 -2 9 9 5 12 -5 17 -1
17 12 0 10 7 24 15 31 8 7 15 9 15 4 0 -4 9 2 21 14 11 12 24 20 29 17 4 -3 6
4 3 15 -4 14 -1 20 8 18 8 -2 13 2 12 9 -1 6 4 17 12 23 12 10 15 10 15 0 0
-19 28 7 46 42 8 15 21 28 29 28 8 0 15 6 15 14 0 8 5 18 12 22 7 5 8 3 3 -7
-8 -12 -6 -12 8 -1 9 8 16 17 15 20 -2 22 4 33 16 29 9 -4 20 6 29 24 8 17 17
30 21 30 24 -3 30 0 18 8 -11 6 -6 14 17 30 17 13 28 27 25 33 -5 7 -2 8 5 4
7 -5 18 0 26 10 8 11 15 15 15 10 0 -5 9 3 21 18 11 14 17 30 14 36 -3 5 1 10
9 10 8 0 20 8 25 18 6 9 11 13 11 9 0 -15 30 21 30 37 0 9 8 16 18 16 9 0 23
9 30 20 7 11 20 20 30 20 14 0 15 2 2 10 -13 8 -13 10 2 10 9 0 27 18 39 40
13 22 28 40 35 40 7 0 30 16 51 35 21 19 35 35 31 35 -4 0 0 9 9 19 9 11 20
18 25 15 4 -3 8 2 8 10 0 9 6 15 13 13 6 -1 11 4 9 12 -2 8 3 11 13 8 8 -4 15
-2 15 3 0 6 0 13 1 18 1 11 30 42 38 39 3 -1 20 11 36 26 23 21 25 26 10 21
-11 -4 2 8 28 26 27 18 51 40 55 49 7 19 43 47 56 43 5 -2 4 4 -4 12 -11 14
-8 18 21 31 19 8 30 14 25 15 -18 0 46 59 68 62 13 2 20 10 19 21 -1 13 4 17
14 13 10 -4 13 -2 10 8 -4 9 2 17 13 21 12 4 17 12 13 22 -4 11 -2 14 5 9 6
-4 20 2 32 14 11 11 17 20 13 20 -5 0 7 8 25 17 18 9 31 21 28 28 -7 18 8 36
32 38 12 1 22 7 22 13 0 7 16 29 35 50 19 20 35 41 35 47 0 5 7 4 15 -3 13
-11 14 -10 9 4 -4 11 -1 16 11 16 9 0 14 4 11 9 -3 5 1 11 9 15 8 3 15 12 15
21 0 8 3 14 8 14 4 -1 16 -1 27 0 17 1 18 3 5 11 -12 8 -9 16 21 44 29 27 39
32 49 23 10 -10 12 -8 7 5 -4 11 -2 17 6 15 7 -1 11 4 9 11 -1 6 3 12 9 12 15
0 40 27 37 41 -2 7 8 15 22 19 14 3 25 12 25 20 0 19 32 43 45 35 9 -5 15 15
11 38 0 4 8 7 18 7 12 0 26 12 34 28 7 15 19 26 25 24 7 -1 15 5 18 13 3 8 10
13 15 10 4 -3 6 4 4 15 -2 12 1 20 10 20 8 0 19 9 25 20 6 11 16 20 24 20 7 0
19 14 27 32 8 17 20 34 28 36 9 3 11 0 6 -9 -4 -8 2 -4 14 8 11 12 21 29 21
38 0 9 4 14 8 11 5 -3 16 6 26 19 10 14 22 22 27 19 5 -3 9 2 9 11 0 10 -5 13
-12 9 -7 -4 -8 -3 -4 5 4 6 11 9 16 6 5 -3 11 -1 15 5 4 6 9 9 13 6 4 -2 20 9
35 25 16 16 25 29 21 29 -3 0 -1 7 6 15 7 8 16 12 21 9 8 -5 13 9 10 29 0 4 9
7 21 7 15 0 19 3 11 8 -9 6 -8 12 7 24 13 12 20 13 24 5 2 -7 5 -4 5 6 1 9 9
17 19 17 13 0 14 2 3 9 -11 7 -10 11 6 20 11 5 24 7 28 3 5 -4 5 1 2 11 -4 9
-2 17 4 17 5 0 20 11 32 24 12 13 27 24 32 25 6 0 10 4 11 9 2 19 17 41 25 36
5 -3 14 6 20 20 7 14 16 23 20 20 5 -3 9 1 9 8 0 10 2 10 9 0 6 -10 10 -8 14
10 4 13 18 30 32 38 14 7 25 17 25 22 0 5 -5 6 -12 2 -7 -5 -8 -3 -4 5 5 7 14
10 21 7 8 -3 17 3 20 14 3 10 13 21 21 24 9 3 12 11 8 17 -4 7 -3 10 2 6 12
-7 38 12 53 41 6 12 19 22 28 22 9 0 13 3 10 7 -4 3 6 19 22 34 16 15 27 30
23 33 -5 6 14 10 32 7 5 -1 6 5 3 13 -4 10 -1 13 9 9 7 -3 14 1 14 8 0 12 69
79 81 79 4 0 9 9 12 21 3 12 10 18 16 14 7 -4 8 1 4 12 -3 10 -3 15 2 11 11
-10 47 11 39 23 -8 14 36 60 49 52 7 -4 8 1 3 13 -4 10 -4 16 -1 12 3 -3 19 7
35 23 16 16 37 29 47 29 15 0 16 2 3 10 -12 8 -11 10 7 10 12 0 25 5 29 12 5
7 2 9 -7 4 -8 -4 -2 2 14 14 15 12 25 26 21 31 -3 5 -1 9 5 9 5 0 13 10 16 21
6 17 9 19 16 8 7 -11 9 -10 9 4 0 9 4 17 9 17 15 0 61 46 54 53 -3 4 1 7 11 7
9 0 14 5 11 10 -3 6 1 10 9 10 21 0 53 33 48 48 -2 7 1 12 8 12 6 0 8 4 5 10
-4 6 1 7 11 3 13 -5 15 -3 9 7 -6 10 -4 12 9 7 10 -4 15 -3 11 3 -3 6 -1 10 5
10 6 0 8 5 5 10 -4 6 -3 10 2 9 23 -4 35 2 29 17 -3 8 -2 12 4 9 6 -3 10 -2
10 3 0 15 41 53 51 46 5 -3 9 -2 8 3 -4 16 13 43 27 43 8 0 14 7 14 16 0 8 5
12 10 9 6 -3 10 1 10 10 0 9 5 15 12 13 13 -5 58 43 58 60 0 6 12 17 28 25 15
7 26 18 26 23 -1 5 7 18 19 29 11 11 17 14 13 8 -4 -7 -3 -13 3 -13 5 0 13 14
16 31 5 23 9 28 16 18 7 -12 9 -12 9 0 0 11 3 11 15 1 8 -7 15 -9 15 -6 0 4 9
2 19 -4 14 -7 22 -7 27 2 5 7 3 8 -7 3 -12 -8 -12 -6 0 8 14 18 26 24 17 8z
m-1206 -1125 c0 -3 -4 -8 -10 -11 -5 -3 -10 -1 -10 4 0 6 5 11 10 11 6 0 10
-2 10 -4z m-2610 -2630 c0 -3 -4 -8 -10 -11 -5 -3 -10 -1 -10 4 0 6 5 11 10
11 6 0 10 -2 10 -4z m-205 -195 c3 -5 2 -12 -3 -15 -5 -3 -9 1 -9 9 0 17 3 19
12 6z"/>
<path d="M8345 9669 c-11 -17 1 -21 15 -4 8 9 8 15 2 15 -6 0 -14 -5 -17 -11z"/>
<path d="M6869 8193 c-13 -16 -12 -17 4 -4 9 7 17 15 17 17 0 8 -8 3 -21 -13z"/>
<path d="M7430 7648 c-678 -57 -1203 -274 -1512 -626 -111 -126 -210 -301
-267 -472 -101 -301 -103 -752 -5 -1065 34 -109 122 -289 186 -383 75 -109
227 -257 344 -335 150 -99 402 -218 610 -286 197 -65 642 -180 914 -236 249
-51 596 -138 725 -180 252 -84 449 -223 516 -364 37 -78 53 -192 39 -282 -21
-147 -67 -238 -162 -324 -182 -163 -540 -246 -1002 -232 -538 17 -852 150
-1041 442 -47 73 -115 217 -115 245 0 6 -10 34 -21 61 -25 57 -58 79 -118 79
-60 0 -1079 -168 -1129 -186 -79 -29 -89 -89 -42 -256 48 -172 144 -389 236
-535 245 -387 662 -668 1198 -808 310 -81 520 -105 977 -112 471 -7 701 9
1020 73 507 100 919 315 1174 611 178 207 298 478 347 778 8 50 12 167 12 310
-1 260 -18 386 -74 555 -42 125 -138 312 -210 408 -76 103 -226 245 -330 314
-324 214 -678 335 -1535 523 -681 150 -913 225 -1068 349 -132 105 -176 188
-184 346 -10 197 55 324 219 431 164 106 539 167 858 141 323 -27 509 -99 656
-253 93 -97 163 -221 190 -334 19 -80 60 -115 136 -115 61 0 1097 139 1132
153 39 15 66 62 66 118 0 25 -15 101 -34 170 -107 390 -305 700 -575 898 -169
125 -457 247 -720 306 -136 31 -350 61 -520 75 -159 12 -741 11 -891 -2z"/>
<path d="M5929 7243 c-13 -16 -12 -17 4 -4 9 7 17 15 17 17 0 8 -8 3 -21 -13z"/>
<path d="M2445 3750 c-3 -5 -1 -10 4 -10 6 0 11 5 11 10 0 6 -2 10 -4 10 -3 0
-8 -4 -11 -10z"/>
</g>
</svg>
