<svg id="svg" xmlns="http://www.w3.org/2000/svg" xmlns:xlink="http://www.w3.org/1999/xlink" width="400" height="521.7391304347826" viewBox="0, 0, 400,521.7391304347826"><g id="svgg"><path id="path0" d="M110.414 2.174 C 109.984 3.370,85.340 119.783,55.649 260.870 C 25.958 401.957,1.283 518.455,0.815 519.755 C -0.516 523.450,209.650 521.550,233.440 517.652 C 298.373 507.011,319.541 479.734,341.614 378.261 C 373.697 230.766,395.173 123.852,398.203 96.549 C 403.985 44.435,378.753 14.644,321.504 5.995 C 285.275 0.521,112.135 -2.613,110.414 2.174 M247.971 90.653 C 268.970 95.940,269.464 89.817,234.578 256.522 C 202.446 410.067,199.699 419.399,184.301 427.323 C 175.871 431.662,153.043 434.926,153.043 431.793 C 153.043 430.377,215.727 130.740,222.909 97.826 L 224.901 88.696 232.550 88.696 C 236.757 88.696,243.696 89.576,247.971 90.653 " stroke="none" fill="#000000" fill-rule="evenodd"></path></g></svg>