<svg id="svg" xmlns="http://www.w3.org/2000/svg" xmlns:xlink="http://www.w3.org/1999/xlink" width="400" height="430.2158273381295" viewBox="0, 0, 400,430.2158273381295"><g id="svgg"><path id="path0" d="M0.000 214.772 L 0.000 430.257 44.245 429.877 L 88.489 429.496 88.858 321.223 C 89.061 261.673,89.419 212.950,89.653 212.950 C 90.167 212.950,143.283 266.587,174.203 298.330 C 199.577 324.378,200.885 325.385,202.809 320.325 C 203.547 318.382,205.339 316.416,206.791 315.955 C 208.242 315.495,210.383 313.714,211.549 311.998 C 212.715 310.282,214.780 307.852,216.138 306.597 C 218.963 303.988,224.067 298.946,233.428 289.520 C 237.557 285.361,240.757 282.161,244.915 278.032 C 249.075 273.902,252.319 270.658,256.449 266.498 C 260.579 262.339,263.778 259.140,267.937 255.010 C 272.096 250.880,275.341 247.636,279.471 243.476 C 284.765 238.144,286.886 236.029,296.756 226.233 C 298.137 224.863,301.213 221.864,303.591 219.571 C 305.968 217.277,307.914 214.849,307.914 214.175 C 307.914 213.501,308.885 212.950,310.072 212.950 C 311.971 212.950,312.230 225.979,312.230 321.583 L 312.230 430.216 356.115 430.216 L 400.000 430.216 400.000 215.827 C 400.000 97.914,399.618 1.439,399.151 1.439 C 398.684 1.439,353.885 45.805,299.599 100.029 C 245.312 154.254,200.366 198.443,199.718 198.227 C 199.070 198.011,153.868 153.161,99.270 98.561 L 0.000 -0.713 0.000 214.772 " stroke="none" fill="#000000" fill-rule="evenodd"></path></g></svg>